<mxfile host="app.diagrams.net" modified="2020-11-18T14:27:28.608Z" agent="5.0 (Macintosh; Intel Mac OS X 10_15_7) AppleWebKit/605.1.15 (KHTML, like Gecko) Version/14.0.1 Safari/605.1.15" etag="SZVM-hJAudGKOy0xuvxH" version="13.9.9" type="github">
  <diagram id="AGwQlyY-RQQPg57_iiTU" name="第 1 页">
    <mxGraphModel dx="983" dy="581" grid="1" gridSize="10" guides="1" tooltips="1" connect="1" arrows="1" fold="1" page="1" pageScale="1" pageWidth="827" pageHeight="1169" math="0" shadow="0">
      <root>
        <mxCell id="0" />
        <mxCell id="1" parent="0" />
        <mxCell id="Ga7MxZwODpQrDuTz0g8l-4" value="" style="rounded=1;whiteSpace=wrap;html=1;fontFamily=Comic Sans MS;fontSize=16;fillColor=#f9f7ed;shadow=1;strokeColor=none;" vertex="1" parent="1">
          <mxGeometry x="160" y="430" width="120" height="230" as="geometry" />
        </mxCell>
        <mxCell id="Ga7MxZwODpQrDuTz0g8l-1" value="next" style="rounded=0;whiteSpace=wrap;html=1;fontSize=16;fontFamily=Comic Sans MS;fillColor=#cce5ff;strokeColor=none;" vertex="1" parent="1">
          <mxGeometry x="160" y="555" width="120" height="45" as="geometry" />
        </mxCell>
        <mxCell id="Ga7MxZwODpQrDuTz0g8l-2" value="prev" style="rounded=0;whiteSpace=wrap;html=1;fontSize=16;fontFamily=Comic Sans MS;fillColor=#ffcc99;strokeColor=none;" vertex="1" parent="1">
          <mxGeometry x="160" y="600" width="120" height="45" as="geometry" />
        </mxCell>
        <mxCell id="Ga7MxZwODpQrDuTz0g8l-3" value="list_head" style="text;html=1;align=center;verticalAlign=middle;resizable=0;points=[];autosize=1;fontSize=16;fontFamily=Comic Sans MS;" vertex="1" parent="1">
          <mxGeometry x="175" y="530" width="90" height="20" as="geometry" />
        </mxCell>
        <mxCell id="Ga7MxZwODpQrDuTz0g8l-5" value="task_struct" style="text;html=1;align=center;verticalAlign=middle;resizable=0;points=[];autosize=1;fontSize=16;fontFamily=Comic Sans MS;" vertex="1" parent="1">
          <mxGeometry x="170" y="400" width="100" height="20" as="geometry" />
        </mxCell>
        <mxCell id="Ga7MxZwODpQrDuTz0g8l-6" value="" style="rounded=1;whiteSpace=wrap;html=1;fontFamily=Comic Sans MS;fontSize=16;fillColor=#f9f7ed;shadow=1;strokeColor=none;" vertex="1" parent="1">
          <mxGeometry x="400" y="430" width="120" height="230" as="geometry" />
        </mxCell>
        <mxCell id="Ga7MxZwODpQrDuTz0g8l-7" value="next" style="rounded=0;whiteSpace=wrap;html=1;fontSize=16;fontFamily=Comic Sans MS;fillColor=#cce5ff;strokeColor=none;" vertex="1" parent="1">
          <mxGeometry x="400" y="555" width="120" height="45" as="geometry" />
        </mxCell>
        <mxCell id="Ga7MxZwODpQrDuTz0g8l-17" style="edgeStyle=orthogonalEdgeStyle;rounded=0;orthogonalLoop=1;jettySize=auto;html=1;entryX=1;entryY=0;entryDx=0;entryDy=0;fontFamily=Comic Sans MS;fontSize=16;" edge="1" parent="1" source="Ga7MxZwODpQrDuTz0g8l-8" target="Ga7MxZwODpQrDuTz0g8l-1">
          <mxGeometry relative="1" as="geometry">
            <Array as="points">
              <mxPoint x="350" y="623" />
              <mxPoint x="350" y="555" />
            </Array>
          </mxGeometry>
        </mxCell>
        <mxCell id="Ga7MxZwODpQrDuTz0g8l-8" value="prev" style="rounded=0;whiteSpace=wrap;html=1;fontSize=16;fontFamily=Comic Sans MS;fillColor=#ffcc99;strokeColor=none;" vertex="1" parent="1">
          <mxGeometry x="400" y="600" width="120" height="45" as="geometry" />
        </mxCell>
        <mxCell id="Ga7MxZwODpQrDuTz0g8l-9" value="list_head" style="text;html=1;align=center;verticalAlign=middle;resizable=0;points=[];autosize=1;fontSize=16;fontFamily=Comic Sans MS;" vertex="1" parent="1">
          <mxGeometry x="415" y="530" width="90" height="20" as="geometry" />
        </mxCell>
        <mxCell id="Ga7MxZwODpQrDuTz0g8l-10" value="task_struct" style="text;html=1;align=center;verticalAlign=middle;resizable=0;points=[];autosize=1;fontSize=16;fontFamily=Comic Sans MS;" vertex="1" parent="1">
          <mxGeometry x="410" y="400" width="100" height="20" as="geometry" />
        </mxCell>
        <mxCell id="Ga7MxZwODpQrDuTz0g8l-11" value="" style="rounded=1;whiteSpace=wrap;html=1;fontFamily=Comic Sans MS;fontSize=16;fillColor=#f9f7ed;shadow=1;strokeColor=none;" vertex="1" parent="1">
          <mxGeometry x="630" y="430" width="120" height="230" as="geometry" />
        </mxCell>
        <mxCell id="Ga7MxZwODpQrDuTz0g8l-20" style="edgeStyle=orthogonalEdgeStyle;rounded=0;orthogonalLoop=1;jettySize=auto;html=1;entryX=0;entryY=0.5;entryDx=0;entryDy=0;fontFamily=Comic Sans MS;fontSize=16;exitX=1;exitY=0.5;exitDx=0;exitDy=0;" edge="1" parent="1" source="Ga7MxZwODpQrDuTz0g8l-12" target="Ga7MxZwODpQrDuTz0g8l-1">
          <mxGeometry relative="1" as="geometry">
            <Array as="points">
              <mxPoint x="790" y="577" />
              <mxPoint x="790" y="370" />
              <mxPoint x="130" y="370" />
              <mxPoint x="130" y="578" />
              <mxPoint x="140" y="578" />
            </Array>
          </mxGeometry>
        </mxCell>
        <mxCell id="Ga7MxZwODpQrDuTz0g8l-12" value="next" style="rounded=0;whiteSpace=wrap;html=1;fontSize=16;fontFamily=Comic Sans MS;fillColor=#cce5ff;strokeColor=none;" vertex="1" parent="1">
          <mxGeometry x="630" y="555" width="120" height="45" as="geometry" />
        </mxCell>
        <mxCell id="Ga7MxZwODpQrDuTz0g8l-21" style="edgeStyle=orthogonalEdgeStyle;rounded=0;orthogonalLoop=1;jettySize=auto;html=1;entryX=1;entryY=0;entryDx=0;entryDy=0;fontFamily=Comic Sans MS;fontSize=16;" edge="1" parent="1" source="Ga7MxZwODpQrDuTz0g8l-13" target="Ga7MxZwODpQrDuTz0g8l-7">
          <mxGeometry relative="1" as="geometry">
            <Array as="points">
              <mxPoint x="575" y="623" />
              <mxPoint x="575" y="555" />
            </Array>
          </mxGeometry>
        </mxCell>
        <mxCell id="Ga7MxZwODpQrDuTz0g8l-13" value="prev" style="rounded=0;whiteSpace=wrap;html=1;fontSize=16;fontFamily=Comic Sans MS;fillColor=#ffcc99;strokeColor=none;" vertex="1" parent="1">
          <mxGeometry x="630" y="600" width="120" height="45" as="geometry" />
        </mxCell>
        <mxCell id="Ga7MxZwODpQrDuTz0g8l-14" value="list_head" style="text;html=1;align=center;verticalAlign=middle;resizable=0;points=[];autosize=1;fontSize=16;fontFamily=Comic Sans MS;" vertex="1" parent="1">
          <mxGeometry x="645" y="530" width="90" height="20" as="geometry" />
        </mxCell>
        <mxCell id="Ga7MxZwODpQrDuTz0g8l-15" value="task_struct" style="text;html=1;align=center;verticalAlign=middle;resizable=0;points=[];autosize=1;fontSize=16;fontFamily=Comic Sans MS;" vertex="1" parent="1">
          <mxGeometry x="640" y="400" width="100" height="20" as="geometry" />
        </mxCell>
        <mxCell id="Ga7MxZwODpQrDuTz0g8l-18" style="edgeStyle=orthogonalEdgeStyle;rounded=0;orthogonalLoop=1;jettySize=auto;html=1;entryX=0;entryY=0.5;entryDx=0;entryDy=0;fontFamily=Comic Sans MS;fontSize=16;" edge="1" parent="1" source="Ga7MxZwODpQrDuTz0g8l-1" target="Ga7MxZwODpQrDuTz0g8l-7">
          <mxGeometry relative="1" as="geometry" />
        </mxCell>
        <mxCell id="Ga7MxZwODpQrDuTz0g8l-19" style="edgeStyle=orthogonalEdgeStyle;rounded=0;orthogonalLoop=1;jettySize=auto;html=1;entryX=0;entryY=0.5;entryDx=0;entryDy=0;fontFamily=Comic Sans MS;fontSize=16;" edge="1" parent="1" source="Ga7MxZwODpQrDuTz0g8l-7" target="Ga7MxZwODpQrDuTz0g8l-12">
          <mxGeometry relative="1" as="geometry" />
        </mxCell>
        <mxCell id="Ga7MxZwODpQrDuTz0g8l-22" style="edgeStyle=orthogonalEdgeStyle;rounded=0;orthogonalLoop=1;jettySize=auto;html=1;fontFamily=Comic Sans MS;fontSize=16;entryX=1;entryY=0;entryDx=0;entryDy=0;exitX=0;exitY=0.5;exitDx=0;exitDy=0;" edge="1" parent="1" source="Ga7MxZwODpQrDuTz0g8l-2" target="Ga7MxZwODpQrDuTz0g8l-12">
          <mxGeometry relative="1" as="geometry">
            <mxPoint x="752" y="550" as="targetPoint" />
            <Array as="points">
              <mxPoint x="130" y="623" />
              <mxPoint x="130" y="680" />
              <mxPoint x="780" y="680" />
              <mxPoint x="780" y="555" />
            </Array>
          </mxGeometry>
        </mxCell>
      </root>
    </mxGraphModel>
  </diagram>
</mxfile>
